<?xml version="1.0" encoding="utf-8"?>
<!-- Generator: Adobe Illustrator 16.0.0, SVG Export Plug-In . SVG Version: 6.00 Build 0)  -->
<!DOCTYPE svg PUBLIC "-//W3C//DTD SVG 1.1//EN" "http://www.w3.org/Graphics/SVG/1.1/DTD/svg11.dtd">
<svg version="1.1" id="Vrstva_1" xmlns="http://www.w3.org/2000/svg" xmlns:xlink="http://www.w3.org/1999/xlink" x="0px" y="0px"
	 width="162.359px" height="28.456px" viewBox="0 0 162.359 28.456" enable-background="new 0 0 162.359 28.456"
	 xml:space="preserve">
<g>
	<defs>
		<rect id="SVGID_1_" y="0" width="162.359" height="28.456"/>
	</defs>
	<clipPath id="SVGID_2_">
		<use xlink:href="#SVGID_1_"  overflow="visible"/>
	</clipPath>
	<path clip-path="url(#SVGID_2_)" fill="#7015A0" d="M0,1.072h10.46c6.047,0,10.383,3.538,10.383,9.547
		c0,5.287-4.336,9.736-12.361,9.736H6.504v7.606H0V1.072z M6.504,15.373H8.71c4.031,0,5.477-2.092,5.477-4.602
		c0-2.7-1.103-4.64-4.564-4.64H6.504V15.373z"/>
	<polygon clip-path="url(#SVGID_2_)" fill="#7015A0" points="25.198,1.072 31.664,1.072 31.664,11.988 43.074,11.988 43.074,1.072 
		49.539,1.072 49.539,27.962 43.074,27.962 43.074,16.894 31.664,16.894 31.664,27.962 25.198,27.962 	"/>
	<path clip-path="url(#SVGID_2_)" fill-rule="evenodd" clip-rule="evenodd" fill="#548B35" d="M89.884,0
		C82.01,0,75.626,6.383,75.626,14.257c0,7.472,5.752,13.591,13.068,14.196v-6.427l-5.235,1.332l1.118-3.084
		c0.039-0.117,0-0.263-0.096-0.331l-6.106-4.29l2.064-0.769c0.067-0.029,0.116-0.078,0.145-0.155c0.029-0.069,0.029-0.137,0-0.205
		l-1.486-3.843l3.743,0.886h0.01c0.135,0.029,0.26-0.078,0.279-0.234l0.261-2.393l2.788,3.405c0.019,0.029,0.067,0.049,0.105,0.039
		c0.067-0.01,0.106-0.078,0.097-0.156l-1.235-7.316l2.46,1.81c0.021,0.009,0.029,0.019,0.039,0.019c0.125,0.059,0.271,0,0.328-0.136
		l1.91-4.796l1.899,4.796c0.011,0.01,0.011,0.029,0.021,0.039c0.077,0.126,0.23,0.156,0.347,0.078l2.46-1.81l-1.234,7.316
		c-0.011,0.049,0.01,0.098,0.039,0.127c0.028,0.019,0.058,0.039,0.086,0.029c0.028,0,0.058-0.01,0.087-0.039l2.778-3.405
		l0.261,2.393c0.01,0.078,0.048,0.156,0.105,0.195c0.059,0.039,0.126,0.058,0.193,0.039l3.732-0.886l-1.484,3.843v0.01
		c-0.048,0.146,0.019,0.302,0.153,0.351l2.064,0.769l-6.116,4.29c-0.096,0.068-0.135,0.214-0.096,0.331l1.119,3.094l-5.271-1.343
		v6.431c7.337-0.585,13.113-6.712,13.113-14.199C104.141,6.383,97.758,0,89.884,0"/>
	<path clip-path="url(#SVGID_2_)" fill="#7015A0" d="M72.744,22.865h-9.943V1.072h-6.466v26.89h20.139
		C74.967,26.487,73.703,24.766,72.744,22.865"/>
	<path clip-path="url(#SVGID_2_)" fill="#7015A0" d="M144.978,1.072h8.329l9.052,26.89h-6.694l-2.548-7.873h-9.09l-2.928,7.873
		h-6.467L144.978,1.072z M151.596,15.411l-2.701-10.345l-3.156,10.345H151.596z"/>
	<path clip-path="url(#SVGID_2_)" fill="#7015A0" d="M131.122,27.961L133,23.066c-2.057-0.721-3.413-1.668-4.629-2.978l-2.738-2.966
		c2.891-1.636,4.336-4.26,4.336-7.265c0-6.009-4.336-8.785-10.383-8.785h-10.46v26.889h6.504v-9.28h1.979
		c0.494,0,0.989,0,1.444-0.038l3.043,3.537c1.913,2.225,3.849,4.197,6.538,5.318C129.419,27.826,130.271,27.961,131.122,27.961
		 M117.836,14.155h-2.206V6.168h3.119c3.461,0,4.564,1.141,4.564,3.842C123.313,12.559,121.677,14.155,117.836,14.155"/>
</g>
</svg>
